<svg xmlns="http://www.w3.org/2000/svg" xmlns:xlink="http://www.w3.org/1999/xlink" viewBox="0 0 283.46 283.46">

<defs>

<style>.cls-1{fill:url(#linear-gradient);}.cls-2{fill:#f0db4f;}.cls-3{fill:#323330;}
#shadow {filter: drop-shadow(rgb(0, 0, 0) 5px 5px 5px);}
</style>

<linearGradient id="linear-gradient" x1="-0.3" y1="-0.63" x2="282.37" y2="282.7" gradientUnits="userSpaceOnUse"><stop offset="0" stop-color="gray"/><stop offset="1" stop-color="#f2f2f2"/></linearGradient>

</defs>

<title>javascript</title>

<g id="Layer_2" data-name="Layer 2">
<g id="background_04" data-name="background 04">
<rect class="cls-1" width="283.46" height="283.46"/>
</g>

<g id="JavaScript">
<path id="shadow" class="cls-2" d="M41.73,41.73h200v200h-200Z"/>
<path class="cls-3" d="M225.36,194c-1.46-9.12-7.41-16.78-25-23.93-6.13-2.82-13-4.83-15-9.47-.72-2.7-.81-4.22-.36-5.86,1.32-5.3,7.65-7,12.66-5.43a13.89,13.89,0,0,1,8.14,7.54c8.63-5.58,8.61-5.55,14.64-9.39a36.63,36.63,0,0,0-4.83-6.46c-5.19-5.8-12.26-8.78-23.57-8.56-2,.25-3.94.52-5.9.76-5.64,1.43-11,4.4-14.18,8.37-9.47,10.74-6.77,29.54,4.75,37.28,11.35,8.52,28,10.46,30.16,18.42,2.07,9.76-7.17,12.91-16.35,11.79-6.77-1.41-10.54-4.85-14.6-11.1-7.49,4.33-7.49,4.33-15.19,8.76,1.82,4,3.74,5.8,6.8,9.26,14.49,14.7,50.74,14,57.25-8.27C225,207,226.77,201.88,225.36,194Zm-74.9-60.38H131.75c0,16.16-.07,32.21-.07,48.37,0,10.28.53,19.71-1.15,22.6-2.73,5.69-9.82,5-13.06,3.88-3.29-1.62-5-3.92-6.9-7.17a10,10,0,0,0-1.06-1.71q-7.62,4.65-15.21,9.32a30,30,0,0,0,11,12.62c7.12,4.28,16.71,5.59,26.73,3.29C138.58,223,144.2,219,147.15,213c4.26-7.86,3.35-17.36,3.31-27.88.09-17.14,0-34.29,0-51.5Z"/>
</g>
</g>
</svg>