<svg xmlns="http://www.w3.org/2000/svg" xmlns:xlink="http://www.w3.org/1999/xlink" viewBox="0 0 171.7 233.48">
<defs>

<style>.cls-1{fill:#fafafa;}.cls-2{fill:#c8c8c8;}.cls-3{fill:url(#linear-gradient);}.cls-4{fill:#f0db4f;}.cls-5{fill:#323330;}
#shadow {filter: drop-shadow(rgb(0, 0, 0) 3px 3px 3px);}
</style>

<linearGradient id="linear-gradient" x1="29.83" y1="92.35" x2="140.48" y2="203.25" gradientUnits="userSpaceOnUse">
<stop offset="0" stop-color="gray"/>
<stop offset="1" stop-color="#f2f2f2"/>
</linearGradient>
</defs>

<title>ITEM_JAVASCRIPT</title>

<g id="icon_item" data-name="icon item">
<path class="cls-1" d="M65.7,258.29a9.93,9.93,0,0,1-9.92-9.92V34.73a9.93,9.93,0,0,1,9.92-9.92H168.1V71.43a12.78,12.78,0,0,0,12.76,12.76h46.62V248.37a9.93,9.93,0,0,1-9.92,9.92Z" transform="translate(-55.78 -24.81)"/>
<path class="cls-2" d="M180.86,77.1h41.52a2.84,2.84,0,0,0,2-4.84L180,27.9a2.84,2.84,0,0,0-4.84,2V71.43A5.68,5.68,0,0,0,180.86,77.1Z" transform="translate(-55.78 -24.81)"/>
<path d="M80.89,58.11a3.41,3.41,0,1,1,0-6.81H143a3.41,3.41,0,0,1,0,6.81Z" transform="translate(-55.78 -24.81)"/>
<path d="M80.89,93.37a3.41,3.41,0,1,1,0-6.81H143a3.41,3.41,0,0,1,0,6.81Z" transform="translate(-55.78 -24.81)"/>
</g>

<g id="Java_script" data-name="Java script">
<rect id="shadow" class="cls-3" x="21.65" y="84.29" width="127.56" height="127.56" rx="28.35" ry="28.35"/>
<path id="shadow" class="cls-4" d="M96.2,127.88h90v90h-90Z" transform="translate(-55.78 -24.81)"/>
<path class="cls-5" d="M178.84,196.41c-.66-4.1-3.34-7.55-11.27-10.77-2.75-1.26-5.82-2.17-6.74-4.26a4.63,4.63,0,0,1-.16-2.63c.59-2.39,3.44-3.13,5.7-2.45a6.29,6.29,0,0,1,3.66,3.4c3.88-2.52,3.87-2.5,6.58-4.23a16.77,16.77,0,0,0-2.17-2.91c-2.33-2.61-5.52-3.95-10.61-3.85l-2.65.34a12.07,12.07,0,0,0-6.38,3.77c-4.26,4.83-3.05,13.29,2.14,16.78,5.11,3.83,12.61,4.7,13.57,8.29.93,4.38-3.23,5.8-7.36,5.3-3.05-.63-4.74-2.18-6.57-5l-6.84,3.95a15.13,15.13,0,0,0,3.07,4.16c6.51,6.62,22.83,6.29,25.76-3.72A12.55,12.55,0,0,0,178.84,196.41Zm-33.71-27.17h-8.42c0,7.27,0,14.5,0,21.77,0,4.63.24,8.87-.51,10.17-1.24,2.56-4.43,2.24-5.88,1.74a7.24,7.24,0,0,1-3.11-3.22,4.5,4.5,0,0,0-.48-.77l-6.84,4.19a13.51,13.51,0,0,0,5,5.68,16.3,16.3,0,0,0,12,1.48,10.58,10.58,0,0,0,6.79-5.32c1.92-3.53,1.51-7.81,1.49-12.54,0-7.72,0-15.43,0-23.18Z" transform="translate(-55.78 -24.81)"/>
</g>
</svg>